<?xml version="1.0" encoding="utf-8"?>
<!-- Generator: Adobe Illustrator 22.0.1, SVG Export Plug-In . SVG Version: 6.00 Build 0)  -->
<svg version="1.1" id="Layer_1" xmlns="http://www.w3.org/2000/svg" xmlns:xlink="http://www.w3.org/1999/xlink" x="0px" y="0px"
	 viewBox="0 0 812 570" style="enable-background:new 0 0 812 570;" xml:space="preserve">
<style type="text/css">
	.st0{fill:url(#SVGID_1_);}
</style>
<g>
	<linearGradient id="SVGID_1_" gradientUnits="userSpaceOnUse" x1="62.0317" y1="440.4971" x2="655.5083" y2="-152.9795">
		<stop  offset="0" style="stop-color:#00FFFF"/>
		<stop  offset="0.9897" style="stop-color:#FC03FF"/>
		<stop  offset="1" style="stop-color:#FF00FF"/>
	</linearGradient>
	<path class="st0" d="M198.7,570.5l-17.1-10.4l123.2-201.9L-0.3,104l8.1-17.5L227,124.6l-30.3-87l14.6-11.9L428,156.3l49.6-81.2
		l6.4-4.6l324-71l4.3,19.5L651.1,54.4l-25,228l-5.5,7.9L262.1,467L198.7,570.5z M324,365.1l-42.8,70.2l246-121.3L324,365.1z
		 M515.4,232.2l-146,100.8l221.1-55.6L515.4,232.2z M257,150.1l63.5,182.4L415,177.6L257,150.1z M41.3,112.5l255.6,213l-62.4-179.3
		L41.3,112.5z M434.7,183.7l-84.3,138.2l146.2-100.9L434.7,183.7z M529.5,217.4l78.4,47.2l20.2-183.8L529.5,217.4z M445.2,166.6
		l67.2,40.5L617.2,61.8L492.4,89.1L445.2,166.6z M249.5,128.5l131.7,22.9L224.7,57.1L249.5,128.5z"/>
</g>
</svg>
